<?xml version="1.0" encoding="UTF-8" standalone="no"?>
<!DOCTYPE svg PUBLIC "-//W3C//DTD SVG 1.1//EN" "http://www.w3.org/Graphics/SVG/1.1/DTD/svg11.dtd">
<!-- 由 Microsoft Visio, SVG Export 生成 rebase_w.svg 页-1 -->
<svg xmlns="http://www.w3.org/2000/svg" xmlns:xlink="http://www.w3.org/1999/xlink" xmlns:ev="http://www.w3.org/2001/xml-events"
		width="9.05322in" height="4.57361in" viewBox="0 0 651.832 329.3" xml:space="preserve" color-interpolation-filters="sRGB"
		class="st18">
	<style type="text/css">
	<![CDATA[
		.st1 {fill:none;stroke:#284a84;stroke-linecap:round;stroke-linejoin:round;stroke-opacity:0.85;stroke-width:2.5}
		.st2 {fill:none;stroke:#284a84;stroke-linecap:round;stroke-linejoin:round;stroke-opacity:0.85;stroke-width:3}
		.st3 {stroke:#3b6cbe;stroke-linecap:round;stroke-linejoin:round;stroke-opacity:0.9;stroke-width:10}
		.st4 {fill:#5295d4;stroke:none;stroke-linecap:round;stroke-linejoin:round;stroke-width:0.75}
		.st5 {fill:#ffffff;font-family:Times New Roman;font-size:1.00001em;font-weight:bold}
		.st6 {stroke:#5b86cc;stroke-linecap:round;stroke-linejoin:round;stroke-opacity:0.9;stroke-width:10}
		.st7 {fill:#82b3df;stroke:none;stroke-linecap:round;stroke-linejoin:round;stroke-width:0.75}
		.st8 {marker-end:url(#mrkr4-54);stroke:#ffffff;stroke-linecap:round;stroke-linejoin:round;stroke-width:2}
		.st9 {fill:#ffffff;fill-opacity:1;stroke:#ffffff;stroke-opacity:1;stroke-width:0.58139534883721}
		.st10 {fill:#9ac1e4;stroke:none;stroke-linecap:round;stroke-linejoin:round;stroke-width:0.75}
		.st11 {marker-end:url(#mrkr4-63);stroke:#ffffff;stroke-linecap:round;stroke-linejoin:round;stroke-width:3}
		.st12 {fill:#ffffff;fill-opacity:1;stroke:#ffffff;stroke-opacity:1;stroke-width:0.67567567567568}
		.st13 {marker-end:url(#mrkr4-69);stroke:#ffffff;stroke-linecap:round;stroke-linejoin:round;stroke-width:1.5}
		.st14 {fill:#ffffff;fill-opacity:1;stroke:#ffffff;stroke-opacity:1;stroke-width:0.51020408163265}
		.st15 {fill:none;stroke:none;stroke-linecap:round;stroke-linejoin:round;stroke-width:0.75}
		.st16 {fill:#ffffff;font-family:宋体;font-size:1.33333em;font-weight:bold}
		.st17 {font-family:Times New Roman;font-size:1em}
		.st18 {fill:none;fill-rule:evenodd;font-size:12px;overflow:visible;stroke-linecap:square;stroke-miterlimit:3}
	]]>
	</style>

	<defs id="Markers">
		<g id="lend4">
			<path d="M 2 1 L 0 0 L 2 -1 L 2 1 " style="stroke:none"/>
		</g>
		<marker id="mrkr4-54" class="st9" refX="-3.44" orient="auto" markerUnits="strokeWidth" overflow="visible">
			<use xlink:href="#lend4" transform="scale(-1.72,-1.72) "/>
		</marker>
		<marker id="mrkr4-63" class="st12" refX="-2.96" orient="auto" markerUnits="strokeWidth" overflow="visible">
			<use xlink:href="#lend4" transform="scale(-1.48,-1.48) "/>
		</marker>
		<marker id="mrkr4-69" class="st14" refX="-3.92" orient="auto" markerUnits="strokeWidth" overflow="visible">
			<use xlink:href="#lend4" transform="scale(-1.96,-1.96) "/>
		</marker>
	</defs>
	<g>
		<title>页-1</title>
		<g id="shape62-1" transform="translate(34.9851,-216.997)">
			<title>工作表.62</title>
			<rect x="0" y="241.436" width="140.583" height="87.8643" class="st1"/>
		</g>
		<g id="shape63-3" transform="translate(289.509,-113.972)">
			<title>工作表.63</title>
			<path d="M43.01 328.46 C116.26 331.64 191.37 325.02 278.89 327.16 C310.61 327.93 343.97 329.86 355.81 310.87 C364.65
						 296.69 361.5 270.84 348.72 257.99 C339.9 249.12 326.49 246.44 318.29 240.94 C303.45 230.99 305.6 211.79
						 299.72 196.85 C293.61 181.32 278.81 170.39 254.13 168.1 C241.18 166.89 225.49 168.08 216.21 164.53 C205.97
						 160.62 203.53 150.96 196.86 143.06 C183.2 126.87 151.79 118.08 126.95 122.34 C102.78 126.47 84.84 142.96
						 74.53 158.9 C69.15 167.24 65.85 175.42 65.45 184.53 C65.05 193.97 67.76 204.41 59.37 212.26 C48.22 222.71
						 17.42 228.59 5.78 244.86 C-13.64 272 20.23 328.05 43.01 328.46 Z" class="st2"/>
		</g>
		<g id="shape64-5" transform="translate(5.17577,-1.25)">
			<title>工作表.64</title>
			<rect x="0" y="173.863" width="228.235" height="155.437" class="st1"/>
		</g>
		<g id="shape65-7" transform="translate(88.5405,-261.347)">
			<title>工作表.65</title>
			<path d="M0 329.3 L35.15 329.3" class="st3"/>
		</g>
		<g id="shape66-10" transform="translate(58.4156,-246.285)">
			<title>工作表.66</title>
			<desc>A</desc>
			<rect x="0" y="299.175" width="30.1249" height="30.1249" class="st4"/>
			<text x="10.73" y="317.84" class="st5">A</text>		</g>
		<g id="shape67-13" transform="translate(123.686,-246.285)">
			<title>工作表.67</title>
			<desc>B</desc>
			<rect x="0" y="299.175" width="30.1249" height="30.1249" class="st4"/>
			<text x="11.06" y="317.84" class="st5">B</text>		</g>
		<g id="shape68-16" transform="translate(58.7312,-113.173)">
			<title>工作表.68</title>
			<path d="M0 329.3 L35.15 329.3" class="st6"/>
		</g>
		<g id="shape69-19" transform="translate(28.6062,-98.1108)">
			<title>工作表.69</title>
			<desc>A</desc>
			<rect x="0" y="299.175" width="30.1249" height="30.1249" class="st7"/>
			<text x="10.73" y="317.84" class="st5">A</text>		</g>
		<g id="shape70-22" transform="translate(93.8769,-98.1108)">
			<title>工作表.70</title>
			<desc>C</desc>
			<rect x="0" y="299.175" width="30.1249" height="30.1249" class="st7"/>
			<text x="10.73" y="317.84" class="st5">C</text>		</g>
		<g id="shape71-25" transform="translate(423.258,-217.871)">
			<title>工作表.71</title>
			<path d="M0 329.3 L35.15 329.3" class="st6"/>
		</g>
		<g id="shape72-28" transform="translate(393.133,-202.808)">
			<title>工作表.72</title>
			<desc>A</desc>
			<rect x="0" y="299.175" width="30.1249" height="30.1249" class="st7"/>
			<text x="10.73" y="317.84" class="st5">A</text>		</g>
		<g id="shape73-31" transform="translate(458.404,-202.808)">
			<title>工作表.73</title>
			<desc>B</desc>
			<rect x="0" y="299.175" width="30.1249" height="30.1249" class="st7"/>
			<text x="11.06" y="317.84" class="st5">B</text>		</g>
		<g id="shape74-34" transform="translate(123.662,-41.9444)">
			<title>工作表.74</title>
			<path d="M0 329.3 L35.15 329.3" class="st3"/>
		</g>
		<g id="shape75-37" transform="translate(58.3914,-42.1048)">
			<title>工作表.75</title>
			<path d="M0 329.3 L35.15 329.3" class="st3"/>
		</g>
		<g id="shape76-40" transform="translate(28.2665,-27.0424)">
			<title>工作表.76</title>
			<desc>A</desc>
			<rect x="0" y="299.175" width="30.1249" height="30.1249" class="st4"/>
			<text x="10.73" y="317.84" class="st5">A</text>		</g>
		<g id="shape77-43" transform="translate(93.5371,-27.0424)">
			<title>工作表.77</title>
			<desc>B</desc>
			<rect x="0" y="299.175" width="30.1249" height="30.1249" class="st4"/>
			<text x="11.06" y="317.84" class="st5">B</text>		</g>
		<g id="shape78-46" transform="translate(158.808,-27.0424)">
			<title>工作表.78</title>
			<desc>C</desc>
			<rect x="0" y="299.175" width="30.1249" height="30.1249" class="st4"/>
			<text x="10.73" y="317.84" class="st5">C</text>		</g>
		<g id="shape79-49" transform="translate(438.957,235.314) rotate(90)">
			<title>工作表.79</title>
			<path d="M0 329.3 L24.99 329.3" class="st8"/>
		</g>
		<g id="shape80-55" transform="translate(393.133,-265.928)">
			<title>工作表.80</title>
			<desc>A</desc>
			<rect x="0" y="299.175" width="30.1249" height="30.1249" class="st10"/>
			<text x="10.73" y="317.84" class="st5">A</text>		</g>
		<g id="shape81-58" transform="translate(738.459,67.2628) rotate(90)">
			<title>工作表.81</title>
			<path d="M0 329.3 L16.63 329.3" class="st11"/>
		</g>
		<g id="shape82-64" transform="translate(203.205,-258.854) rotate(2.63676)">
			<title>工作表.82</title>
			<path d="M0 329.3 L209.78 329.3" class="st13"/>
		</g>
		<g id="shape83-70" transform="translate(223.532,-259.529) rotate(2.6)">
			<title>工作表.83</title>
			<desc>① git push</desc>
			<rect x="0" y="309.3" width="152" height="20" class="st15"/>
			<text x="38.62" y="324.59" class="st16">①<tspan class="st17"> </tspan><tspan class="st17">git push</tspan></text>		</g>
		<g id="shape84-75" transform="translate(0.375,-308.73)">
			<title>工作表.84</title>
			<desc>远程服务器 普通仓库 xxx</desc>
			<rect x="0" y="309.3" width="209.803" height="20" class="st15"/>
			<text x="16.62" y="324.59" class="st16">远程服务器<tspan class="st17"> </tspan>普通仓库<tspan class="st17"> </tspan><tspan
						class="st17">xxx</tspan></text>		</g>
		<g id="shape85-81" transform="translate(43.293,-162.667)">
			<title>工作表.85</title>
			<desc>本地 普通仓库 xxx</desc>
			<rect x="0" y="309.3" width="152" height="20" class="st15"/>
			<text x="11.81" y="324.59" class="st16">本地<tspan class="st17"> </tspan>普通仓库<tspan class="st17"> </tspan><tspan
						class="st17">xxx</tspan></text>		</g>
		<g id="shape86-87" transform="translate(393.92,-87.628)">
			<title>工作表.86</title>
			<desc>中央仓库 xxx.git</desc>
			<rect x="0" y="309.3" width="152" height="20" class="st15"/>
			<text x="18.99" y="324.59" class="st16">中央仓库<tspan class="st17"> </tspan><tspan class="st17">xxx.git</tspan></text>		</g>
		<g id="shape87-92" transform="translate(738.459,132.46) rotate(90)">
			<title>工作表.87</title>
			<path d="M0 329.3 L16.63 329.3" class="st11"/>
		</g>
		<g id="shape88-97" transform="translate(13.8686,14.0041) rotate(-34.89)">
			<title>工作表.88</title>
			<path d="M0 329.3 L241.9 329.3" class="st13"/>
		</g>
		<g id="shape89-102" transform="translate(40.4124,22.8702) rotate(-35)">
			<title>工作表.89</title>
			<desc>③ git push</desc>
			<rect x="0" y="309.3" width="152" height="20" class="st15"/>
			<text x="38.62" y="324.59" class="st16">③<tspan class="st17"> </tspan><tspan class="st17">git push</tspan></text>		</g>
		<g id="shape90-107" transform="translate(532.96,412.506) rotate(153.313)">
			<title>工作表.90</title>
			<path d="M0 329.3 L290.76 329.3" class="st13"/>
		</g>
		<g id="shape91-112" transform="translate(43.4122,-81.2331) rotate(-26.7)">
			<title>工作表.91</title>
			<desc>② git pull --rebase</desc>
			<rect x="0" y="309.3" width="152" height="20" class="st15"/>
			<text x="12.2" y="324.59" class="st16">②<tspan class="st17"> </tspan><tspan class="st17">git pull </tspan><tspan
						class="st17">--</tspan><tspan class="st17">rebase</tspan></text>		</g>
		<g id="shape95-119" transform="translate(488.963,-150.437)">
			<title>工作表.95</title>
			<path d="M0 329.3 L35.15 329.3" class="st3"/>
		</g>
		<g id="shape96-122" transform="translate(423.693,-150.597)">
			<title>工作表.96</title>
			<path d="M0 329.3 L35.15 329.3" class="st3"/>
		</g>
		<g id="shape97-125" transform="translate(393.568,-135.535)">
			<title>工作表.97</title>
			<desc>A</desc>
			<rect x="0" y="299.175" width="30.1249" height="30.1249" class="st4"/>
			<text x="10.73" y="317.84" class="st5">A</text>		</g>
		<g id="shape98-128" transform="translate(458.838,-135.535)">
			<title>工作表.98</title>
			<desc>B</desc>
			<rect x="0" y="299.175" width="30.1249" height="30.1249" class="st4"/>
			<text x="11.06" y="317.84" class="st5">B</text>		</g>
		<g id="shape99-131" transform="translate(524.109,-135.535)">
			<title>工作表.99</title>
			<desc>C</desc>
			<rect x="0" y="299.175" width="30.1249" height="30.1249" class="st4"/>
			<text x="10.73" y="317.84" class="st5">C</text>		</g>
	</g>
</svg>
